<svg version="1.1" id="Layer_1" xmlns="http://www.w3.org/2000/svg" xmlns:xlink="http://www.w3.org/1999/xlink" x="0px" y="0px"
	 width="100%" viewBox="0 0 496 464" enable-background="new 0 0 496 464" xml:space="preserve">
<path fill="#000000" opacity="1.000000" stroke="none" 
	d="
M173.375488,384.689789 
	C162.812454,378.596008 152.553635,372.707855 142.309128,366.794952 
	C141.013016,366.046875 139.750687,365.225159 138.542786,364.341736 
	C131.100586,358.898590 130.163086,352.447815 135.794037,345.049408 
	C138.517136,341.471588 141.513504,338.096008 144.140366,334.451691 
	C156.309143,317.569458 162.314240,298.304108 165.660736,278.047119 
	C169.158905,256.872040 169.599350,235.334290 172.854004,214.159576 
	C176.535873,190.205551 176.810349,165.745712 183.504944,142.243759 
	C194.020355,105.328430 226.807480,77.752655 264.947723,73.608063 
	C297.318085,70.090462 326.515686,77.582436 349.972839,100.684799 
	C374.781189,125.117935 383.751495,155.655930 378.847870,189.897751 
	C374.911621,217.384415 361.295135,239.481033 338.841614,256.031799 
	C315.238068,273.430267 291.847168,291.122314 268.050934,308.252075 
	C256.835266,316.325684 245.109451,323.615540 235.119888,333.345825 
	C222.246536,345.885071 212.575699,360.433014 205.968979,377.086395 
	C205.354630,378.634918 204.729324,380.179230 204.095428,381.719879 
	C198.772797,394.656158 194.452591,396.191956 181.967056,389.533966 
	C179.174347,388.044739 176.443451,386.439636 173.375488,384.689789 
M306.053467,138.435822 
	C305.099640,137.765259 304.183838,137.031296 303.186340,136.433670 
	C288.681366,127.743309 273.782135,124.636894 258.420746,134.086197 
	C242.991180,143.577484 233.783051,157.319183 234.520966,175.682877 
	C235.296600,194.985611 246.887115,207.320145 263.937866,214.967728 
	C270.411407,217.871231 277.267059,219.700790 284.337036,218.420792 
	C303.659607,214.922440 316.731934,203.550812 322.059418,184.820816 
	C327.276184,166.480072 320.724640,151.183090 306.053467,138.435822 
M176.838425,271.559631 
	C176.484192,274.868408 176.299774,278.205963 175.745544,281.480896 
	C173.636566,293.942780 178.052094,303.331207 188.838776,309.777069 
	C196.837814,314.557129 204.898407,319.234711 212.877365,324.047760 
	C219.401657,327.983398 220.613174,328.025818 226.772552,323.588837 
	C244.200195,311.034454 261.623047,298.473358 279.021210,285.878174 
	C281.510437,284.076141 284.570862,282.887390 286.131500,279.950195 
	C284.382721,277.735657 282.448517,278.630371 280.543549,279.117035 
	C271.032654,281.546600 261.546326,284.081024 251.996796,286.348846 
	C241.011108,288.957764 230.318222,292.954254 218.907166,293.592896 
	C210.986389,294.036194 207.244293,291.702881 204.185333,284.383240 
	C203.162018,281.934570 202.309174,279.393280 201.622253,276.828979 
	C197.579605,261.737976 193.690094,246.605423 189.556122,231.539810 
	C188.544159,227.851837 188.339828,223.780518 185.322693,219.864822 
	C181.034897,237.145264 180.025986,254.137192 176.838425,271.559631 
M179.205933,342.678650 
	C170.741928,357.425995 170.741928,357.425995 172.206268,361.701447 
	C179.466431,354.817139 187.799927,338.957886 187.658005,332.215973 
	C183.293991,334.156586 182.034134,338.603851 179.205933,342.678650 
M168.985138,327.891541 
	C169.259293,326.800629 169.988388,325.753906 169.093857,324.146637 
	C163.130356,330.800201 158.337341,337.869110 155.362900,347.631653 
	C161.494263,341.343353 166.256638,335.744537 168.985138,327.891541 
M196.658737,361.136536 
	C199.274780,356.170959 202.311539,351.379456 203.217987,345.696869 
	C198.158340,351.896118 191.963760,357.531128 191.747269,366.034760 
	C192.240906,366.282745 192.734528,366.530731 193.228165,366.778748 
	C194.251572,365.104553 195.274979,363.430328 196.658737,361.136536 
z"/>
</svg>